<!-- Generated by IcoMoon.io -->
<svg version="1.1" xmlns="http://www.w3.org/2000/svg" width="32" height="32" viewBox="0 0 32 32">
<title>clock</title>
<path fill="#2e2f42" d="M31.3 15.303c-0.002-8.453-6.856-15.304-15.31-15.303s-15.304 6.856-15.303 15.31c0.002 6.789 4.423 12.544 10.542 14.547l0.108 0.031c0.060 0.019 0.123 0.029 0.187 0.029 0.121 0 0.239-0.032 0.343-0.093 0.135-0.080 0.236-0.207 0.284-0.357l3.865-12.251c1.054-0.004 1.906-0.859 1.906-1.913 0-1.057-0.857-1.913-1.913-1.913-0.303 0-0.59 0.070-0.845 0.196l0.011-0.005-5.107-5.107c-0.115-0.115-0.275-0.187-0.451-0.187-0.352 0-0.638 0.286-0.638 0.638 0 0.176 0.071 0.336 0.187 0.451v0l5.104 5.11c-0.121 0.241-0.191 0.525-0.191 0.826 0 0.602 0.283 1.137 0.723 1.48l0.004 0.003-3.683 11.674c-7.279-2.681-11.006-10.755-8.324-18.034 2.681-7.278 10.756-11.006 18.034-8.324s11.005 10.756 8.324 18.034c-1.345 3.582-4.004 6.407-7.375 7.939l-0.088 0.036-0.398-1.875c-0.063-0.291-0.318-0.505-0.624-0.505-0.163 0-0.312 0.061-0.425 0.162l0.001-0.001-3.837 3.426c-0.132 0.117-0.214 0.287-0.214 0.477 0 0.283 0.185 0.524 0.441 0.607l0.005 0.001 4.899 1.564c0.058 0.020 0.126 0.031 0.196 0.031 0.352 0 0.638-0.285 0.638-0.638 0-0.047-0.005-0.093-0.015-0.137l0.001 0.004-0.391-1.839c5.528-2.375 9.33-7.773 9.33-14.058 0-0.011 0-0.023-0-0.034v0.002zM15.994 14.665c0.352 0 0.638 0.286 0.638 0.638s-0.286 0.638-0.638 0.638v0c-0.352 0-0.638-0.286-0.638-0.638s0.286-0.638 0.638-0.638v0zM18.094 29.531l2.184-1.948 0.603 2.84-2.787-0.892z"></path>
<path fill="#4d5ae5" d="M15.356 3.185v1.275c0 0.352 0.285 0.638 0.638 0.638s0.638-0.285 0.638-0.638v-1.275c-0.014-0.341-0.294-0.613-0.638-0.613s-0.624 0.271-0.638 0.612l-0 0.001zM3.876 14.665c-0.352 0-0.638 0.285-0.638 0.638s0.285 0.638 0.638 0.638h1.275c0.352 0 0.638-0.285 0.638-0.638s-0.285-0.638-0.638-0.638h-1.275zM28.111 15.941c0.352 0 0.638-0.285 0.638-0.638s-0.285-0.638-0.638-0.638h-1.275c-0.341 0.014-0.613 0.294-0.613 0.638s0.271 0.624 0.612 0.638l0.001 0h1.275z"></path>
</svg>
