<!-- Generated by IcoMoon.io -->
<svg version="1.1" xmlns="http://www.w3.org/2000/svg" width="34" height="32" viewBox="0 0 34 32">
<title>companynext</title>
<path fill="#8e8f99" d="M5.316 31.398c0.013 0 0.025 0.003 0.036 0.008 0.012 0.004 0.022 0.010 0.031 0.018l-0-0 0.172 0.162c-0.135 0.131-0.296 0.235-0.474 0.304l-0.010 0.003c-0.219 0.078-0.453 0.116-0.688 0.11-0.011 0-0.023 0-0.036 0-0.219 0-0.429-0.038-0.624-0.107l0.013 0.004c-0.188-0.067-0.35-0.166-0.487-0.291l0.001 0.001c-0.133-0.123-0.239-0.273-0.311-0.441l-0.003-0.008c-0.070-0.165-0.11-0.358-0.11-0.559 0-0.006 0-0.012 0-0.018v0.001c-0-0.006-0-0.012-0-0.019 0-0.203 0.044-0.395 0.122-0.568l-0.003 0.009c0.075-0.167 0.189-0.32 0.334-0.449 0.146-0.125 0.318-0.225 0.506-0.29l0.011-0.003c0.192-0.065 0.414-0.103 0.644-0.103 0.008 0 0.015 0 0.023 0h-0.001c0.211-0.004 0.422 0.028 0.618 0.094 0.171 0.064 0.328 0.151 0.464 0.26l-0.144 0.173c-0.010 0.012-0.022 0.023-0.036 0.031l-0.001 0c-0.014 0.009-0.032 0.014-0.050 0.014-0.003 0-0.006-0-0.009-0l0 0c-0.023-0.001-0.045-0.008-0.063-0.019l0.001 0-0.078-0.046-0.107-0.059c-0.099-0.048-0.213-0.084-0.333-0.103l-0.007-0.001c-0.071-0.012-0.152-0.018-0.235-0.018-0.008 0-0.015 0-0.023 0h0.001c-0.005-0-0.011-0-0.017-0-0.165 0-0.324 0.028-0.471 0.080l0.010-0.003c-0.145 0.050-0.269 0.124-0.376 0.218l0.001-0.001c-0.108 0.101-0.19 0.219-0.244 0.347-0.056 0.13-0.088 0.282-0.088 0.441 0 0.005 0 0.011 0 0.016v-0.001c-0 0.005-0 0.011-0 0.017 0 0.161 0.032 0.314 0.091 0.454l-0.003-0.008c0.111 0.263 0.325 0.465 0.59 0.556l0.007 0.002c0.14 0.050 0.291 0.075 0.443 0.073 0.088 0.002 0.176-0.004 0.263-0.015 0.219-0.022 0.414-0.108 0.571-0.239l-0.002 0.001c0.022-0.018 0.051-0.029 0.082-0.030h0zM10.293 30.584c0.003 0.195-0.037 0.39-0.116 0.573-0.077 0.176-0.187 0.325-0.323 0.444l-0.001 0.001c-0.144 0.126-0.317 0.226-0.509 0.291-0.196 0.065-0.421 0.103-0.655 0.103s-0.459-0.038-0.67-0.107l0.015 0.004c-0.196-0.068-0.365-0.168-0.509-0.294l0.002 0.002c-0.137-0.123-0.248-0.272-0.324-0.441l-0.003-0.008c-0.074-0.169-0.117-0.367-0.117-0.574s0.043-0.404 0.12-0.583l-0.004 0.010c0.073-0.167 0.185-0.32 0.328-0.451 0.144-0.123 0.317-0.219 0.507-0.281 0.422-0.14 0.888-0.14 1.31 0 0.191 0.066 0.365 0.166 0.508 0.293 0.272 0.243 0.442 0.594 0.442 0.985 0 0.012-0 0.024-0 0.036l0-0.002zM9.84 30.584c0.004-0.156-0.023-0.312-0.081-0.461-0.105-0.267-0.32-0.471-0.588-0.559l-0.007-0.002c-0.142-0.048-0.306-0.076-0.476-0.076s-0.334 0.028-0.487 0.079l0.011-0.003c-0.142 0.049-0.263 0.124-0.365 0.218l0.001-0.001c-0.1 0.093-0.179 0.208-0.23 0.337l-0.002 0.006c-0.109 0.301-0.109 0.621 0 0.921 0.048 0.127 0.128 0.244 0.233 0.344 0.101 0.094 0.226 0.168 0.365 0.215 0.307 0.098 0.645 0.098 0.952 0 0.138-0.048 0.263-0.122 0.364-0.215 0.104-0.1 0.182-0.218 0.231-0.344 0.058-0.148 0.086-0.304 0.081-0.461zM13.69 31.067l0.044 0.103c0.017-0.037 0.033-0.070 0.050-0.103 0.016-0.035 0.035-0.069 0.056-0.101l1.101-1.71c0.022-0.030 0.041-0.048 0.062-0.055 0.022-0.006 0.047-0.009 0.074-0.009 0.006 0 0.012 0 0.018 0l-0.001-0h0.325v2.781h-0.386v-2.131c-0.001-0.014-0.002-0.031-0.002-0.048s0.001-0.034 0.002-0.050l-0 0.002-1.108 1.734c-0.015 0.027-0.037 0.049-0.064 0.063l-0.001 0c-0.027 0.015-0.059 0.023-0.093 0.023-0 0-0.001 0-0.001 0h-0.062c-0.001 0-0.002 0-0.002 0-0.034 0-0.066-0.009-0.094-0.024l0.001 0c-0.027-0.014-0.049-0.036-0.064-0.062l-0-0.001-1.14-1.745v2.233h-0.373v-2.776h0.325c0.004-0 0.009-0 0.014-0 0.027 0 0.053 0.004 0.078 0.010l-0.002-0c0.026 0.011 0.047 0.029 0.060 0.052l0 0.001 1.124 1.712c0.023 0.031 0.041 0.066 0.057 0.1zM17.833 30.929v1.041h-0.431v-2.777h0.96c0.182-0.003 0.363 0.017 0.537 0.061 0.14 0.034 0.269 0.092 0.379 0.172 0.092 0.072 0.165 0.163 0.214 0.269l0.002 0.004c0.051 0.113 0.076 0.233 0.073 0.355 0 0.004 0 0.008 0 0.012 0 0.253-0.122 0.478-0.31 0.619l-0.002 0.001c-0.109 0.082-0.236 0.145-0.375 0.182l-0.008 0.002c-0.167 0.045-0.343 0.067-0.518 0.064l-0.521-0.008zM17.833 30.63h0.521c0.113 0.001 0.226-0.013 0.333-0.043 0.093-0.026 0.173-0.067 0.244-0.121l-0.002 0.001c0.121-0.097 0.198-0.245 0.198-0.411 0-0.002 0-0.005-0-0.007v0c0.001-0.008 0.001-0.018 0.001-0.028 0-0.072-0.016-0.14-0.046-0.201l0.001 0.003c-0.036-0.076-0.087-0.139-0.15-0.189l-0.001-0.001c-0.144-0.095-0.321-0.152-0.511-0.152-0.024 0-0.048 0.001-0.071 0.003l0.003-0h-0.521v1.145zM23.625 31.974h-0.341c-0.002 0-0.004 0-0.006 0-0.033 0-0.063-0.010-0.089-0.026l0.001 0c-0.024-0.016-0.043-0.038-0.056-0.063l-0-0.001-0.293-0.672h-1.472l-0.304 0.671c-0.012 0.026-0.031 0.047-0.053 0.062l-0.001 0c-0.026 0.018-0.058 0.028-0.092 0.028-0.002 0-0.003-0-0.005-0h-0.34l1.293-2.781h0.448l1.311 2.781zM21.492 30.941h1.215l-0.513-1.132c-0.035-0.072-0.068-0.159-0.094-0.249l-0.003-0.013-0.049 0.145c-0.016 0.044-0.032 0.084-0.047 0.117l-0.509 1.132zM25.487 29.205c0.025 0.012 0.047 0.029 0.064 0.050l0 0 1.886 2.097v-2.159h0.386v2.781h-0.215c-0.003 0-0.006 0-0.009 0-0.029 0-0.057-0.006-0.082-0.016l0.001 0.001c-0.027-0.014-0.049-0.031-0.069-0.052l-0-0-1.883-2.095c0.001 0.014 0.002 0.031 0.002 0.048s-0.001 0.034-0.002 0.050l0-0.002v2.067h-0.386v-2.781h0.228c0.027-0.001 0.053 0.003 0.078 0.012zM30.998 30.868v1.105h-0.431v-1.105l-1.191-1.675h0.386c0.003-0 0.006-0 0.010-0 0.031 0 0.059 0.009 0.084 0.024l-0.001-0c0.023 0.018 0.043 0.039 0.058 0.062l0.745 1.081c0.051 0.071 0.095 0.152 0.129 0.239l0.003 0.007 0.056-0.119c0.021-0.044 0.046-0.086 0.073-0.127l0.735-1.088c0.016-0.023 0.034-0.042 0.055-0.059l0.001-0c0.024-0.017 0.053-0.028 0.085-0.028 0.003 0 0.005 0 0.008 0l-0-0h0.39l-1.194 1.683zM13.476 24.524c0.187 0.020 0.377 0.037 0.569 0.052 2.907-1.112 5.367-2.93 7.072-5.229s2.578-4.976 2.51-7.697l-3.204-2.738c0.651 2.897 0.347 5.891-0.881 8.649-1.227 2.756-3.328 5.168-6.067 6.963z"></path>
<path fill="#8e8f99" d="M12.331 24.396l0.086 0.015c2.927-1.789 5.16-4.287 6.407-7.171s1.454-6.022 0.592-9.007l-4.564-3.899c1.846 3.205 2.589 6.792 2.143 10.343s-2.064 6.923-4.663 9.72zM27.809 14.864c-0.775 2.99-2.659 5.686-5.37 7.689-0.739 0.553-1.574 1.073-2.453 1.519l-0.098 0.045c2.208-0.554 4.237-1.535 5.931-2.865s3.008-2.976 3.841-4.809l-1.85-1.58z"></path>
<path fill="#8e8f99" d="M27.083 14.423l-2.635-2.251c-0.051 2.567-0.905 5.076-2.474 7.265s-3.796 3.98-6.449 5.186h0.013c0.591 0 1.182-0.030 1.769-0.090 2.48-0.865 4.67-2.24 6.376-4.005s2.874-3.862 3.4-6.104zM12.713 2.689l-3.143-2.69c-2.81 0.928-5.228 2.559-6.935 4.681-1.709 2.121-2.628 4.632-2.635 7.207 0.010 2.844 1.131 5.605 3.185 7.844s4.921 3.829 8.151 4.519c2.884-3.001 4.572-6.711 4.82-10.588s-0.959-7.72-3.442-10.972zM34.347 14.010c-0.012-3.375-1.585-6.609-4.379-8.995-2.792-2.386-6.577-3.731-10.527-3.741-0.010-0-0.022-0-0.034-0-1.896 0-3.72 0.311-5.423 0.884l0.12-0.035 19.248 16.446c0.627-1.338 0.993-2.905 0.995-4.558v-0.001z"></path>
</svg>
