<!-- Generated by IcoMoon.io -->
<svg version="1.1" xmlns="http://www.w3.org/2000/svg" width="32" height="32" viewBox="0 0 32 32">
<title>instagram</title>
<path fill="#f4f4fd" d="M31.977 9.411c-0.074-1.7-0.35-2.871-0.744-3.883-0.424-1.112-1.054-2.060-1.849-2.84l-0.001-0.001c-0.78-0.791-1.725-1.418-2.779-1.824l-0.054-0.018c-1.020-0.394-2.181-0.67-3.881-0.744-1.716-0.080-2.263-0.1-6.604-0.1-4.347 0-4.891 0.020-6.598 0.094-1.7 0.074-2.869 0.35-3.881 0.744-1.112 0.424-2.060 1.054-2.84 1.849l-0.001 0.001c-0.792 0.78-1.419 1.725-1.826 2.779l-0.018 0.054c-0.394 1.020-0.668 2.181-0.744 3.881-0.080 1.714-0.1 2.261-0.1 6.604 0 4.347 0.020 4.891 0.094 6.598 0.074 1.7 0.35 2.871 0.744 3.883 0.406 1.076 1.038 2.039 1.851 2.839 0.8 0.812 1.771 1.444 2.833 1.845 1.020 0.394 2.181 0.67 3.883 0.744 1.707 0.076 2.251 0.094 6.598 0.094 4.345 0 4.889-0.020 6.596-0.094 1.7-0.074 2.871-0.35 3.883-0.744 2.157-0.85 3.833-2.526 4.664-4.628l0.019-0.055c0.394-1.020 0.67-2.181 0.744-3.883 0.076-1.706 0.094-2.251 0.094-6.598 0-4.345-0.006-4.889-0.080-6.596zM29.096 22.479c-0.070 1.564-0.332 2.409-0.552 2.971-0.551 1.401-1.638 2.489-3.003 3.028l-0.036 0.013c-0.562 0.218-1.412 0.48-2.969 0.548-1.689 0.076-2.195 0.094-6.466 0.094s-4.783-0.020-6.466-0.094c-1.564-0.068-2.409-0.33-2.971-0.55-0.721-0.269-1.335-0.676-1.837-1.193l-0.001-0.001c-0.517-0.504-0.923-1.118-1.183-1.804l-0.011-0.034c-0.22-0.562-0.48-1.412-0.55-2.969-0.074-1.689-0.094-2.197-0.094-6.466 0-4.271 0.020-4.783 0.094-6.466 0.070-1.564 0.332-2.409 0.55-2.971 0.256-0.694 0.664-1.324 1.2-1.839 0.52-0.532 1.144-0.938 1.841-1.194 0.56-0.22 1.412-0.48 2.969-0.55 1.688-0.074 2.195-0.094 6.466-0.094 4.277 0 4.781 0.020 6.466 0.094 1.562 0.070 2.407 0.332 2.969 0.55 0.694 0.256 1.326 0.662 1.841 1.194 0.53 0.52 0.936 1.144 1.192 1.841 0.22 0.56 0.482 1.41 0.55 2.969 0.076 1.688 0.094 2.195 0.094 6.466s-0.018 4.771-0.092 6.458z"></path>
<path fill="#f4f4fd" d="M16.065 7.784c-4.463 0.102-8.043 3.744-8.043 8.222s3.579 8.121 8.034 8.222l0.009 0c4.463-0.102 8.043-3.744 8.043-8.222s-3.579-8.121-8.034-8.222l-0.009-0zM16.065 21.342c-2.947 0-5.336-2.389-5.336-5.336s2.389-5.336 5.336-5.336v0c2.947 0 5.336 2.389 5.336 5.336s-2.389 5.336-5.336 5.336v0zM26.532 7.46c0 1.061-0.86 1.921-1.921 1.921s-1.921-0.86-1.921-1.921v0c0-1.061 0.86-1.921 1.921-1.921s1.921 0.86 1.921 1.921v0z"></path>
</svg>
