<!-- Generated by IcoMoon.io -->
<svg version="1.1" xmlns="http://www.w3.org/2000/svg" width="32" height="32" viewBox="0 0 32 32">
<title>linkedin</title>
<path fill="#f4f4fd" d="M32.001 32.009h0.008v-11.743c0-5.742-1.236-10.167-7.95-10.167-3.227 0-5.394 1.773-6.278 3.451h-0.094v-2.913h-6.364v21.372h6.63v-10.583c0-2.785 0.528-5.478 3.977-5.478 3.401 0 3.451 3.179 3.451 5.658v10.403h6.622zM0.528 10.639h6.636v21.37h-6.636v-21.37zM3.843 0c-2.121 0-3.841 1.72-3.841 3.841s1.72 3.881 3.841 3.881c2.123 0 3.845-1.76 3.845-3.881s-1.726-3.841-3.847-3.841z"></path>
</svg>
