<!-- Generated by IcoMoon.io -->
<svg version="1.1" xmlns="http://www.w3.org/2000/svg" width="32" height="32" viewBox="0 0 32 32">
<title>twitter</title>
<path fill="#f4f4fd" d="M32.009 6.080c-1.1 0.494-2.376 0.858-3.713 1.029l-0.068 0.007c1.36-0.817 2.382-2.079 2.874-3.581l0.013-0.046c-1.198 0.723-2.592 1.274-4.077 1.574l-0.084 0.014c-1.2-1.279-2.902-2.076-4.789-2.076-3.624 0-6.562 2.938-6.562 6.562v0c0 0.52 0.044 1.020 0.152 1.496-5.47-0.276-10.281-2.879-13.499-6.83l-0.027-0.034c-0.563 0.949-0.896 2.092-0.896 3.312 0 2.265 1.146 4.262 2.889 5.444l0.023 0.015c-1.092-0.030-2.11-0.325-2.998-0.823l0.033 0.017v0.072c0.004 3.165 2.238 5.807 5.214 6.44l0.043 0.008c-0.501 0.137-1.076 0.216-1.669 0.216-0.018 0-0.036-0-0.054-0l0.003 0c-0.031 0.001-0.067 0.001-0.103 0.001-0.403 0-0.797-0.041-1.177-0.119l0.038 0.006c0.873 2.624 3.274 4.497 6.123 4.571l0.009 0c-2.215 1.745-5.045 2.799-8.122 2.799-0.005 0-0.010 0-0.015 0h0.001c-0.538 0-1.054-0.024-1.57-0.090 2.827 1.847 6.289 2.945 10.007 2.945 0.021 0 0.042-0 0.063-0h-0.003c12.075 0 18.677-10.003 18.677-18.673 0-0.29-0.010-0.57-0.024-0.848 1.299-0.937 2.391-2.067 3.259-3.36l0.030-0.047z"></path>
</svg>
